<svg xmlns="http://www.w3.org/2000/svg" width="256" height="256" viewBox="0 0 100 100"><rect width="100" height="100" rx="20" fill="#504a77"></rect><path fill="#fff" d="M53.51 72.55L46.49 72.55Q45.59 70.39 44.10 67.06Q42.62 63.73 40.91 59.86Q39.20 55.98 37.27 51.89Q35.33 47.80 33.62 44.15Q31.91 40.51 30.42 37.63Q28.94 34.75 28.04 33.22L28.04 33.22Q27.05 43.84 26.42 56.21Q25.79 68.59 25.34 81.19L25.34 81.19L16.79 81.19Q17.15 73.09 17.60 64.85Q18.05 56.62 18.63 48.65Q19.22 40.69 19.89 33.13Q20.57 25.57 21.38 18.82L21.38 18.82L29.03 18.82Q31.46 22.78 34.25 28.18Q37.04 33.58 39.83 39.47Q42.62 45.37 45.23 51.26Q47.84 57.16 50 62.02L50 62.02Q52.16 57.16 54.77 51.26Q57.38 45.37 60.17 39.47Q62.96 33.58 65.75 28.18Q68.54 22.78 70.97 18.82L70.97 18.82L78.62 18.82Q81.68 48.97 83.21 81.19L83.21 81.19L74.66 81.19Q74.21 68.59 73.58 56.21Q72.95 43.84 71.96 33.22L71.96 33.22Q71.06 34.75 69.58 37.63Q68.09 40.51 66.38 44.15Q64.67 47.80 62.73 51.89Q60.80 55.98 59.09 59.86Q57.38 63.73 55.89 67.06Q54.41 70.39 53.51 72.55L53.51 72.55Z"></path></svg>